# xmcd
#
# Track frame offsets: 
#        150
#        20141
#        37881
#        69600
#        90311
#        108678
#        126223
#        145302
#        159069
#        173352
#        196562
#        214478
#
# Disc length: 2917 seconds
#
# Revision: 0
# Processed by: cddbd v1.5.2PL0 Copyright (c) Steve Scherf et al.
# Submitted via: ExactAudioCopy v0.99pb5
#
DISCID=9b0b630c
DTITLE=JO JAMEZ - Halfway To Anywhere
DYEAR=2010
DGENRE=Rock
TTITLE0=Other People
TTITLE1=It Don't Matter
TTITLE2=Can't Stop Lovin' You
TTITLE3=Been Such A Long Time
TTITLE4=Picked Up My Cross
TTITLE5=Well Ran Dry
TTITLE6=With A Strat And A Dream
TTITLE7=Always Pretty
TTITLE8=Amen
TTITLE9=Why
TTITLE10=Forevermore
TTITLE11=Ortega Highway
EXTD=
EXTT0=
EXTT1=
EXTT2=
EXTT3=
EXTT4=
EXTT5=
EXTT6=
EXTT7=
EXTT8=
EXTT9=
EXTT10=
EXTT11=
PLAYORDER=
